<!DOCTYPE svg PUBLIC "-//W3C//DTD SVG 1.1//EN" "http://www.w3.org/Graphics/SVG/1.1/DTD/svg11.dtd">
<!-- Uploaded to: SVG Repo, www.svgrepo.com, Transformed by: SVG Repo Mixer Tools -->
<svg height="800px" width="800px" version="1.1" id="_x32_" xmlns="http://www.w3.org/2000/svg" xmlns:xlink="http://www.w3.org/1999/xlink" viewBox="0 0 512 512" xml:space="preserve" fill="#000000" stroke="#000000">

<g id="SVGRepo_bgCarrier" stroke-width="0"/>

<g id="SVGRepo_tracerCarrier" stroke-linecap="round" stroke-linejoin="round"/>

<g id="SVGRepo_iconCarrier"> <style type="text/css"> .st0{fill:#000000;} </style> <g> <polygon class="st0" points="236.424,416.128 271.772,416.128 273.104,348.216 235.101,348.216 "/> <polygon class="st0" points="415.615,260.97 373.041,260.97 369.716,319.804 410.453,319.804 "/> <path class="st0" d="M402.637,408.765l5.318-60.549h-39.849l-3.839,67.912h30.326C398.772,416.128,402.262,412.933,402.637,408.765 z"/> <polygon class="st0" points="344.542,260.97 303.309,260.97 302.143,319.804 341.217,319.804 "/> <polygon class="st0" points="339.616,348.216 301.594,348.216 300.262,416.128 335.777,416.128 "/> <polygon class="st0" points="273.661,319.804 274.819,260.97 233.386,260.97 234.535,319.804 "/> <polygon class="st0" points="172.428,416.128 207.934,416.128 206.602,348.216 168.572,348.216 "/> <polygon class="st0" points="206.045,319.804 204.896,260.97 163.645,260.97 166.979,319.804 "/> <path class="st0" d="M105.568,408.765c0.358,4.169,3.857,7.364,8.035,7.364h30.318l-3.83-67.912h-39.84L105.568,408.765z"/> <polygon class="st0" points="138.48,319.804 135.155,260.97 92.581,260.97 97.752,319.804 "/> <path class="st0" d="M485.843,172.088h-52.915h-42.242h-46.169l78.314-57.658l-0.009-0.018c5.11-3.604,9.105-8.304,11.786-13.544 c2.733-5.345,4.143-11.246,4.152-17.217c0-7.382-2.202-14.92-6.711-21.431l0.009,0.008l-3.534-5.109l-0.018-0.009 c-3.62-5.249-8.426-9.34-13.779-12.073c-5.344-2.733-11.237-4.143-17.208-4.143c-7.39-0.009-14.928,2.194-21.422,6.711 l-0.148,0.087L220.39,162.226l0.017,0.009c-3.873,2.733-7.102,6.093-9.61,9.853h-89.482H79.063H26.157 C11.708,172.088,0,183.796,0,198.245v12.274c0,13.953,10.941,25.329,24.72,26.078l25.304,186.703h0.009 c1.558,13.527,8.07,25.496,17.575,34.009c9.575,8.6,22.292,13.796,36.045,13.796h300.889c13.744,0,26.471-5.196,36.046-13.796 c9.505-8.513,16.016-20.482,17.582-34.009l25.304-186.625h2.368c14.441,0,26.157-11.716,26.157-26.156v-12.274 C512,183.796,500.284,172.088,485.843,172.088z M231.418,187.46c0.888-1.697,2.141-3.186,3.865-4.387l0.174-0.112L390.72,68.644 c2.123-1.454,4.439-2.124,6.798-2.124c1.924,0,3.838,0.453,5.535,1.332c1.707,0.87,3.204,2.132,4.405,3.856l-0.018-0.009 l3.543,5.11v0.009c1.471,2.132,2.141,4.448,2.15,6.833c0,1.914-0.453,3.829-1.332,5.535c-0.888,1.707-2.141,3.203-3.865,4.396 l-0.139,0.096L252.51,208.012c-2.124,1.454-4.439,2.124-6.807,2.133c-1.915,0-3.83-0.462-5.536-1.341 c-1.706-0.871-3.186-2.142-4.387-3.856l-3.542-5.11v0.009c-1.472-2.133-2.133-4.457-2.141-6.842 C230.096,191.091,230.548,189.166,231.418,187.46z M432.754,420.045l-0.018,0.148c-0.792,7.224-4.196,13.492-9.261,18.036 c-5.075,4.535-11.664,7.242-18.933,7.251H103.654c-7.259,0-13.867-2.716-18.932-7.251c-5.058-4.543-8.47-10.811-9.262-18.036 l-0.017-0.131l-0.018-0.2l-24.442-180.28h406.232L432.754,420.045z"/> </g> </g>

</svg>